<?xml version="1.0" encoding="utf-8"?>
<!-- Generator: Adobe Illustrator 16.0.3, SVG Export Plug-In . SVG Version: 6.00 Build 0)  -->
<!DOCTYPE svg PUBLIC "-//W3C//DTD SVG 1.1//EN" "http://www.w3.org/Graphics/SVG/1.1/DTD/svg11.dtd">
<svg version="1.1" id="Normal" xmlns="http://www.w3.org/2000/svg" xmlns:xlink="http://www.w3.org/1999/xlink" x="0px" y="0px"
	 width="716.238px" height="716.218px" viewBox="0 0 716.238 716.218" enable-background="new 0 0 716.238 716.218"
	 xml:space="preserve">
<path fill="#EF4136" d="M0,358.106c8.054,8.054,350.061,350.06,358.115,358.112c8.052-8.053,350.066-350.059,358.123-358.112
	C708.181,350.051,366.167,8.053,358.115,0C350.061,8.053,8.054,350.051,0,358.106z"/>
<path fill="#FFFFFF" d="M368.966,597.386c4.254-3.02,7.311-5.758,9.172-8.213c2.834-3.695,4.252-7.924,4.252-12.686
	c0-6.209-2.008-11.195-6.025-14.969c-4.018-3.77-9.424-5.654-16.221-5.654c-8.597,0-14.579,4.313-17.946,10.721
	c-1.771,3.367-2.763,6.678-2.969,16.01h14.627c0-8.051,1.989-12.922,6.602-12.922c4.611,0,6.646,4.789,6.646,7.92
	c0,4.943-5.514,10.271-11.546,14.193c-6.907,4.492-12.259,11.781-14.063,16.059c-1.872,3.805-2.866,8.008-2.982,12.607h43.981
	v-15.104h-24.437C359.302,604.335,368.966,597.386,368.966,597.386z"/>
<path fill="#FFFFFF" d="M40.209,358.106l317.906,317.903l317.916-317.903L358.115,40.208L40.209,358.106z M358.115,661.869
	c-6.83-6.832-296.934-296.931-303.763-303.763c6.83-6.832,296.934-296.926,303.763-303.758
	c6.833,6.832,296.939,296.926,303.771,303.758C655.054,364.938,364.949,655.037,358.115,661.869z"/>
<path fill="#FFFFFF" d="M357.966,97.879c-15.229,29.087,3.327,45.506-17.13,88.354c-10.853-8.671-4.561-41.079-26.115-41.622
	c3.316,9.951,0.835,13.817,0.281,17.411c-2.145,13.937-7.12,26.392,2.555,44.914c-14.862-7.221-15.108-20.471-27.675-28.78
	c2.488,14.098-3.504,42.687,13.188,70.078c-14.873-1.464-19.806-7.183-35.903-22.609c16.8,87.034,29.299,89.479,90.908,94.417
	c-4.643-0.543-35.684-5.502-46.927-41.274c-0.639-8.858-0.989,7.784,28.866,8.338c-18.904-29.938-13.754-24.272-11.542-41.687
	c7.825,11.917,0.97,12.959,23.084,21.806c-7.011-22.276,10.821-37.52,6.952-62.951c4.886,11.169,22.267,9.41,21.439,63.037
	c14.393-16.055,16.109-4.941,23.02-22.91c0.4,10.004,4.791,22.459-14.77,42.964c4.977,1.382,13.307,2.453,26.854-6.669
	c-13.189,14.947-1.27,15.299-34.627,39.76c42.018,0.551,69.615-25.898,68.625-84.023c-1.105,4.976-2.344,14.91-25.012,17.952
	c14.199-14.11,21.598-42.201,10.266-65.421c-3.992,3.711-10.193,20.966-25.121,25.943c7.57-12.422,5.869-28.498,5.869-28.498
	s1.932-21.713-10.895-38.482c-3.592,26.261-3.291,39.467-19.879,43.614c2.67-15.5,3.16-22.717-5.133-40.409
	C370.484,132.651,360.453,114.465,357.966,97.879z M288.582,330.028v10.109v10.136h73.955h73.953l-0.023-10.109l-0.021-10.079
	l-73.908-0.027L288.582,330.028z"/>
</svg>
