<?xml version="1.0" encoding="UTF-8" standalone="no"?>
<svg
   xmlns:dc="http://purl.org/dc/elements/1.1/"
   xmlns:cc="http://creativecommons.org/ns#"
   xmlns:rdf="http://www.w3.org/1999/02/22-rdf-syntax-ns#"
   xmlns:svg="http://www.w3.org/2000/svg"
   xmlns="http://www.w3.org/2000/svg"
   xmlns:sodipodi="http://sodipodi.sourceforge.net/DTD/sodipodi-0.dtd"
   xmlns:inkscape="http://www.inkscape.org/namespaces/inkscape"
   viewBox="0 0 1002.0001 1002.006"
   height="1002.006"
   width="1002.0001"
   xml:space="preserve"
   id="svg2"
   version="1.1"
   inkscape:version="0.91 r13725"
   sodipodi:docname="new.svg"><sodipodi:namedview
     pagecolor="#ffffff"
     bordercolor="#666666"
     borderopacity="1"
     objecttolerance="10"
     gridtolerance="10"
     guidetolerance="10"
     inkscape:pageopacity="0"
     inkscape:pageshadow="2"
     inkscape:window-width="1600"
     inkscape:window-height="1135"
     id="namedview52"
     showgrid="false"
     showguides="false"
     inkscape:object-nodes="true"
     fit-margin-left="1"
     fit-margin-top="1"
     fit-margin-right="1"
     fit-margin-bottom="1"
     inkscape:zoom="0.24676243"
     inkscape:cx="851.38682"
     inkscape:cy="1739.4582"
     inkscape:window-x="1600"
     inkscape:window-y="0"
     inkscape:window-maximized="1"
     inkscape:current-layer="svg2" /><metadata
     id="metadata8"><rdf:RDF><cc:Work
         rdf:about=""><dc:format>image/svg+xml</dc:format><dc:type
           rdf:resource="http://purl.org/dc/dcmitype/StillImage" /><dc:title /></cc:Work></rdf:RDF></metadata><defs
     id="defs6" /><g
     id="g4232"><path
       inkscape:connector-curvature="0"
       d="m 1.00012,501.00091 c 515.33498,149.18262 665.33008,175.17321 999.99998,1.4e-4 L 500.99873,1 1.00012,501.00088"
       style="fill:#ef2e33;fill-opacity:1;fill-rule:nonzero;stroke:none"
       id="path16"
       sodipodi:nodetypes="cccc" /><path
       inkscape:connector-curvature="0"
       d="M 502.70816,928.76872 C 641.74894,789.73218 794.94771,633.43014 927.3769,501.00103 l -849.461669,3e-4"
       style="fill:#f5f014;fill-opacity:1;fill-rule:nonzero;stroke:none"
       id="path18"
       sodipodi:nodetypes="ccc" /><path
       sodipodi:nodetypes="ccc"
       inkscape:connector-curvature="0"
       d="M 1,501.00091 500.99891,1001.006 1001,501.00108"
       style="fill:#f5f014;fill-opacity:1;fill-rule:nonzero;stroke:none"
       id="path20" /><path
       inkscape:connector-curvature="0"
       d="M 502.36033,73.58497 88.866015,487.08323 C 157.96115,417.98809 488.97289,86.974378 502.36033,73.58497"
       style="fill:#ffffff;fill-opacity:1;fill-rule:nonzero;stroke:none"
       id="path24" /><path
       inkscape:connector-curvature="0"
       d="M 498.22284,60.03882 58.744679,499.51698 502.64424,55.61742 Z"
       style="fill:#ffffff;fill-opacity:1;fill-rule:nonzero;stroke:none"
       id="path28" /><path
       inkscape:connector-curvature="0"
       d="M 88.742097,511.82898 502.36989,925.45599 C 489.08981,912.17433 157.58723,580.67333 88.742097,511.82898"
       style="fill:#ffffff;fill-opacity:1;fill-rule:nonzero;stroke:none"
       id="path60" /><path
       sodipodi:nodetypes="cccccccc"
       inkscape:connector-curvature="0"
       d="m 502.64326,73.30204 426.21632,426.21632 5.0282,5.29593 12.65544,-5.2979 L 502.64424,55.61742 58.744679,499.51698 l 10.54056,4.43637 7.146333,-4.43568"
       style="fill:#100f0d;fill-opacity:1;fill-rule:nonzero;stroke:none"
       id="path88" /><path
       inkscape:connector-curvature="0"
       d="m 946.54322,499.51639 -17.68364,0.002 C 779.82103,648.52011 637.24464,791.16631 502.64484,925.72939 356.52111,779.61966 206.5449,629.62066 76.431572,499.51767 l -17.686893,-6.9e-4 443.898971,443.89897"
       style="fill:#100f0d;fill-opacity:1;fill-rule:nonzero;stroke:none"
       id="path90"
       sodipodi:nodetypes="cccccc" /><path
       inkscape:connector-curvature="0"
       d="m 448.35533,805.95834 c -3.61322,10e-4 -6.36504,-0.98917 -8.24816,-2.9685 -1.88814,-1.98219 -3.16527,-4.79819 -3.83355,-8.44779 l -16.71862,10e-4 c 0.58656,7.98416 3.47935,14.14711 8.68448,18.49261 5.20365,4.345 11.85202,6.51775 19.95132,6.51794 10.05576,-3.9e-4 17.60655,-3.08936 22.65207,-9.26463 5.04681,-6.17459 7.56804,-13.19116 7.56952,-21.04766 -5.9e-4,-9.02754 -2.61893,-15.9066 -7.85264,-20.63755 -5.23372,-4.727 -11.36848,-7.09396 -18.39895,-7.09435 -3.48113,-7.9e-4 -6.42647,0.45042 -8.84823,1.34811 -1.44709,0.54999 -3.45698,1.66081 -6.03628,3.33907 l 3.06374,-18.68898 34.94672,5.9e-4 0,-14.13469 -46.95736,7.9e-4 -6.05669,47.03131 15.00419,0.67824 c 1.33489,-2.5376 3.31945,-4.27767 5.95169,-5.21824 1.49568,-0.50592 3.26326,-0.76322 5.30795,-0.76332 4.32065,-7.9e-4 7.50376,1.49874 9.54688,4.48923 2.04468,2.99285 3.06599,6.65813 3.0657,10.99997 2e-4,4.42022 -1.0916,8.08501 -3.27283,10.99771 -2.17984,2.91724 -5.353,4.37113 -9.52095,4.36906"
       style="fill:#100f0d;fill-opacity:1;fill-rule:nonzero;stroke:none"
       id="path92" /><path
       inkscape:connector-curvature="0"
       d="m 508.53836,799.84142 -17.80726,-3.9e-4 5.9e-4,17.53675 17.80756,3e-4 -8.9e-4,-17.53666"
       style="fill:#100f0d;fill-opacity:1;fill-rule:nonzero;stroke:none"
       id="path94" /><path
       inkscape:connector-curvature="0"
       d="m 541.32072,782.61116 c -8.88509,6.36357 -14.52399,12.37904 -16.91746,18.04958 -2.48032,5.04345 -3.79836,10.61827 -3.95619,16.71645 l 58.31519,0 0,-14.67886 -37.12489,10e-4 c 1.05088,-1.76856 2.35216,-3.32024 3.8931,-4.65395 1.54172,-1.33687 4.40928,-3.49503 8.59911,-6.48197 l 6.69953,-4.76949 c 5.63594,-4.00539 9.69081,-7.63597 12.15714,-10.88937 3.7609,-4.89854 5.63899,-10.50874 5.63918,-16.81977 9.9e-4,-8.23258 -2.6628,-14.84556 -7.98928,-19.84475 -5.32826,-4.99702 -12.49616,-7.50002 -21.50556,-7.49903 -11.39806,0 -19.32996,4.25085 -23.79573,12.74665 -2.35019,4.46774 -3.66232,10.32252 -3.93441,17.5683 l 16.3104,-9.9e-4 c 0.19519,-4.78517 0.81921,-8.27399 1.87601,-10.47236 1.8356,-3.80133 5.2909,-5.70494 10.37083,-5.70396 3.70668,0 6.56162,1.19679 8.55396,3.59134 1.98938,2.39357 2.98605,5.39342 2.98703,9.00448 -9.8e-4,4.43324 -1.74007,8.51443 -5.21301,12.24389 -2.26532,2.3917 -7.25643,6.35775 -14.96495,11.89273"
       style="fill:#100f0d;fill-opacity:1;fill-rule:nonzero;stroke:none"
       id="path96" /><path
       id="path4035"
       style="fill:#000000;stroke:none"
       d="m 496.06109,136.77094 c -20.44151,39.04231 4.4655,61.08107 -22.992,118.5934 -14.56794,-11.63943 -6.12244,-55.13781 -35.05482,-55.86679 4.45257,13.3577 1.11996,18.54626 0.37787,23.36988 -2.87799,18.70696 -9.55674,35.42481 3.42991,60.28498 -19.94944,-9.69252 -20.28056,-27.47673 -37.14764,-38.63006 3.33943,18.92341 -4.70235,57.29565 17.70181,94.06084 -19.96406,-1.96366 -26.58501,-9.6382 -48.1931,-30.34596 22.55111,116.8221 39.32828,120.10383 122.02331,126.73216 -6.23063,-0.73042 -47.89711,-7.38459 -62.98821,-55.40172 -0.85655,-11.8896 -1.32678,10.44871 38.74632,11.1908 -25.37361,-40.18483 -18.46109,-32.57801 -15.49272,-55.95399 10.5038,15.99796 1.30165,17.39696 30.98544,29.27048 -9.41142,-29.90131 14.52517,-50.36145 9.33051,-84.4978 6.55898,14.99198 29.88948,12.63088 28.77634,84.61407 19.31756,-21.55171 21.62204,-6.63482 30.89823,-30.7529 0.53727,13.42711 6.43049,30.14555 -19.8237,57.66895 6.67885,1.85523 17.86176,3.29192 36.04309,-8.95264 -17.70275,20.06311 -1.70327,20.53624 -46.47815,53.36703 56.3992,0.74209 93.44166,-34.761 92.11336,-112.78 -1.48419,6.67885 -3.14652,20.01503 -33.5724,24.09655 19.05857,-18.93804 28.9907,-56.64346 13.77776,-87.81143 -5.35627,4.9816 -13.68117,28.14342 -33.71773,34.82227 10.16308,-16.67383 7.87716,-38.25218 7.87716,-38.25218 0,0 2.5928,-29.14374 -14.62071,-51.65208 -4.82361,35.2495 -4.42066,52.97526 -26.68351,58.54096 3.58273,-20.804 4.24254,-30.49202 -6.88888,-54.23904 -11.6262,-24.80254 -25.08811,-49.21294 -28.42754,-71.47578 z m -93.1307,318.34189 c 0,6.81137 0,13.62274 0,20.43411 l 198.52768,0 c -0.0193,-6.79199 -0.0386,-13.58398 -0.058,-20.37597 -66.15655,-0.0194 -132.31309,-0.0387 -198.46964,-0.058 z"
       inkscape:connector-curvature="0"
       sodipodi:nodetypes="cccsccccccccccccccccccccccsccccccc" /></g></svg>