<?xml version="1.0" encoding="utf-8"?>
<!-- Generator: Adobe Illustrator 16.0.3, SVG Export Plug-In . SVG Version: 6.00 Build 0)  -->
<!DOCTYPE svg PUBLIC "-//W3C//DTD SVG 1.1//EN" "http://www.w3.org/Graphics/SVG/1.1/DTD/svg11.dtd">
<svg version="1.1" id="Normal" xmlns="http://www.w3.org/2000/svg" xmlns:xlink="http://www.w3.org/1999/xlink" x="0px" y="0px"
	 width="716.238px" height="716.215px" viewBox="0 0 716.238 716.215" enable-background="new 0 0 716.238 716.215"
	 xml:space="preserve">
<path fill="#EF4136" d="M0,358.105c8.055,8.054,350.061,350.06,358.115,358.11c8.055-8.053,350.067-350.059,358.123-358.11
	C708.184,350.05,366.17,8.052,358.115,0C350.061,8.052,8.055,350.05,0,358.105z"/>
<path fill="#FFFFFF" d="M358.116,676.008l317.913-317.903L358.116,40.207L40.209,358.105L358.116,676.008z M358.116,54.347
	c6.833,6.832,296.938,296.926,303.771,303.758c-6.832,6.832-296.938,296.933-303.771,303.763
	c-6.831-6.83-296.934-296.931-303.765-303.763C61.183,351.273,351.285,61.179,358.116,54.347z"/>
<path fill="#FFFFFF" d="M372.164,593.295c-2.203-1.867-3.893-2.801-5.068-2.801c1.574-0.555,3.09-1.594,4.545-3.119
	c2.304-2.438,3.455-5.432,3.455-8.979c0-5.016-1.938-9.014-5.813-11.994c-3.877-2.98-8.978-4.471-15.298-4.471
	c-3.406,0-6.279,0.375-8.619,1.121c-2.339,0.746-4.362,1.824-6.065,3.234c-2.281,1.992-3.953,4.164-5.015,6.514
	c-1.004,2.684-1.566,5.52-1.688,8.506h12.125c-0.063-2.959,0.629-5.324,2.07-7.094c1.442-1.77,3.693-2.656,6.759-2.656
	c2.67,0,4.74,0.723,6.212,2.168s2.207,3.318,2.207,5.623c0,3.557-1.438,5.918-4.313,7.084c-1.666,0.695-4.604,1.07-8.811,1.125v8.5
	c4.31,0,7.465,0.379,9.471,1.133c3.518,1.344,5.278,4.014,5.278,8.012c0,3.021-0.955,5.336-2.86,6.943
	c-1.908,1.609-4.143,2.412-6.705,2.412c-4.183,0-7.066-1.457-8.652-4.375c-0.854-1.582-1.282-3.582-1.282-6h-12.75
	c0.211,4.797,1.275,8.678,3.193,11.643c3.647,5.572,10.154,8.357,19.521,8.357c7.602,0,13.342-1.943,17.219-5.83
	s5.815-8.393,5.815-13.521C377.096,599.958,375.451,596.112,372.164,593.295z"/>
<path fill="#FFFFFF" d="M357.966,97.879c-15.229,29.087,3.327,45.506-17.13,88.354c-10.853-8.671-4.561-41.079-26.115-41.622
	c3.316,9.951,0.835,13.817,0.281,17.411c-2.145,13.937-7.12,26.392,2.555,44.914c-14.862-7.221-15.108-20.471-27.675-28.78
	c2.488,14.098-3.504,42.687,13.188,70.078c-14.873-1.464-19.806-7.183-35.903-22.609c16.8,87.034,29.299,89.479,90.908,94.417
	c-4.643-0.543-35.684-5.502-46.927-41.274c-0.639-8.858-0.989,7.784,28.866,8.338c-18.904-29.938-13.754-24.272-11.542-41.687
	c7.825,11.917,0.97,12.959,23.084,21.806c-7.011-22.276,10.821-37.52,6.952-62.951c4.886,11.169,22.267,9.41,21.439,63.037
	c14.393-16.055,16.109-4.941,23.02-22.91c0.4,10.004,4.791,22.459-14.77,42.964c4.977,1.382,13.307,2.453,26.854-6.669
	c-13.189,14.947-1.27,15.299-34.627,39.76c42.018,0.551,69.615-25.898,68.625-84.023c-1.105,4.976-2.344,14.91-25.012,17.952
	c14.199-14.11,21.598-42.201,10.266-65.421c-3.992,3.711-10.193,20.966-25.121,25.943c7.57-12.422,5.869-28.498,5.869-28.498
	s1.932-21.713-10.895-38.482c-3.592,26.261-3.291,39.467-19.879,43.614c2.67-15.5,3.16-22.717-5.133-40.409
	C370.484,132.651,360.453,114.465,357.966,97.879z M288.583,330.027v10.109v10.136h73.955h73.953l-0.023-10.108l-0.021-10.079
	l-73.908-0.027L288.583,330.027z"/>
</svg>
